<svg id="svg" version="1.1" xmlns="http://www.w3.org/2000/svg" style="display: block;" viewBox="0 0 579 580"><path d="M0 0 C191.07 0 382.14 0 579 0 C579 191.4 579 382.8 579 580 C387.93 580 196.86 580 0 580 C0 388.6 0 197.2 0 0 Z " transform="translate(0,0)" style="fill: #F9F9F9;"/><path d="M0 0 C5.115 -0.061875 10.23 -0.12375 15.5 -0.1875 C17.89668945 -0.22846802 17.89668945 -0.22846802 20.34179688 -0.27026367 C30.0646844 -0.32720502 38.0020131 0.15085536 45.390625 7.18359375 C51.34999459 13.90958127 52.46027331 20.29676293 52.5625 29.0625 C52.57724365 29.90119629 52.5919873 30.73989258 52.60717773 31.60400391 C52.47059022 39.95792519 49.53709095 47.37638557 43.78417969 53.50805664 C35.64627019 60.31303269 25.3462194 59.47987816 15.375 59.25 C7.764375 59.12625 7.764375 59.12625 0 59 C0 39.53 0 20.06 0 0 Z " transform="translate(244,294)" style="fill: #0C0E5A;"/><path d="M0 0 C8.7703907 6.81071515 14.48996924 14.68769267 19.16552734 24.68212891 C19.61798828 25.57673828 20.07044922 26.47134766 20.53662109 27.39306641 C23.49236592 34.36821509 23.53982633 41.4040094 23.60302734 48.86962891 C23.61849609 50.40272705 23.61849609 50.40272705 23.63427734 51.96679688 C23.55890201 58.41662226 22.65998919 63.73614922 20.16552734 69.68212891 C19.88475342 70.35912842 19.60397949 71.03612793 19.31469727 71.73364258 C15.5712522 80.32989487 11.29219173 89.42970668 3.16552734 94.68212891 C0.52099609 95.02587891 0.52099609 95.02587891 -1.83447266 94.68212891 C-2.49447266 94.02212891 -3.15447266 93.36212891 -3.83447266 92.68212891 C-3.45947266 90.05712891 -3.45947266 90.05712891 -2.83447266 87.68212891 C-2.17447266 87.68212891 -1.51447266 87.68212891 -0.83447266 87.68212891 C-0.83447266 87.02212891 -0.83447266 86.36212891 -0.83447266 85.68212891 C-0.17447266 85.68212891 0.48552734 85.68212891 1.16552734 85.68212891 C1.43751953 85.10076172 1.70951172 84.51939453 1.98974609 83.92041016 C3.15213731 81.7076189 4.48359242 79.86878064 5.97802734 77.86962891 C14.42402934 65.14874629 16.08895772 50.70417625 13.54052734 35.86962891 C9.50594968 21.45644802 0.03851092 10.09444411 -12.83447266 2.68212891 C-24.77874822 -3.10475792 -40.39165403 -4.74170846 -53.33447266 -1.19287109 C-68.71531372 4.52461433 -78.75460865 13.66557979 -85.70947266 28.49462891 C-90.52890919 39.2984651 -90.74354832 54.14483228 -87.14697266 65.36962891 C-86.4249259 67.16090867 -85.65695702 68.93468672 -84.83447266 70.68212891 C-84.47224609 71.47619141 -84.11001953 72.27025391 -83.73681641 73.08837891 C-81.07239401 78.36303205 -77.58030569 82.37760055 -73.40869141 86.54150391 C-71.49851106 89.13896999 -71.43200379 90.526773 -71.83447266 93.68212891 C-72.83447266 94.68212891 -72.83447266 94.68212891 -75.62353516 94.99853516 C-80.70451092 94.49785506 -82.37202058 91.62259094 -85.52197266 87.85009766 C-96.49188313 72.82206152 -100.63517811 56.83845836 -98.55322266 38.15869141 C-95.51433447 21.97076781 -85.53799764 7.62289338 -72.42822266 -2.10302734 C-49.74998722 -16.4978164 -21.77372712 -15.64207865 0 0 Z " transform="translate(314.83447265625,147.31787109375)" style="fill: #771770;"/><path d="M0 0 C1.93166016 0.01740234 1.93166016 0.01740234 3.90234375 0.03515625 C5.19269531 0.04417969 6.48304688 0.05320312 7.8125 0.0625 C8.81152344 0.07410156 9.81054688 0.08570313 10.83984375 0.09765625 C22.11937961 29.52679572 22.11937961 29.52679572 26.64477539 42.84082031 C27.81916592 46.27883627 29.04418046 49.6311607 30.52734375 52.94921875 C31.83984375 56.09765625 31.83984375 56.09765625 31.83984375 59.09765625 C27.54984375 59.09765625 23.25984375 59.09765625 18.83984375 59.09765625 C14.83984375 49.47265625 14.83984375 49.47265625 14.83984375 46.09765625 C7.24984375 46.09765625 -0.34015625 46.09765625 -8.16015625 46.09765625 C-8.49015625 48.40765625 -8.82015625 50.71765625 -9.16015625 53.09765625 C-10.72265625 56.53515625 -10.72265625 56.53515625 -12.16015625 59.09765625 C-16.45015625 59.09765625 -20.74015625 59.09765625 -25.16015625 59.09765625 C-23.50622082 53.21699695 -21.60748756 47.49035275 -19.4375 41.78125 C-18.90052024 40.3592862 -18.36374304 38.9372459 -17.82714844 37.51513672 C-17.55181274 36.78655457 -17.27647705 36.05797241 -16.99279785 35.30731201 C-15.64569667 31.73238867 -14.31586954 28.15107033 -12.984375 24.5703125 C-12.20180253 22.47129114 -11.41871326 20.37246324 -10.63549805 18.27368164 C-10.10038856 16.8381555 -9.56624237 15.40226998 -9.03295898 13.96606445 C-8.24846113 11.85402741 -7.46052648 9.74330144 -6.671875 7.6328125 C-5.98291138 5.78248413 -5.98291138 5.78248413 -5.2800293 3.89477539 C-3.76730142 0.11641846 -3.76730142 0.11641846 0 0 Z " transform="translate(126.16015625,293.90234375)" style="fill: #0E105C;"/><path d="M0 0 C14.52 0 29.04 0 44 0 C44 3.63 44 7.26 44 11 C33.77 11 23.54 11 13 11 C13 15.29 13 19.58 13 24 C22.57 24 32.14 24 42 24 C42 27.3 42 30.6 42 34 C32.43 34 22.86 34 13 34 C13 38.62 13 43.24 13 48 C23.56 48 34.12 48 45 48 C45 51.63 45 55.26 45 59 C30.15 59 15.3 59 0 59 C0 39.53 0 20.06 0 0 Z " transform="translate(409,294)" style="fill: #0B0D59;"/><path d="M0 0 C4.29 0 8.58 0 13 0 C13.01401855 1.91462036 13.01401855 1.91462036 13.02832031 3.86791992 C13.06824339 8.61127402 13.13400903 13.35398112 13.20751953 18.09692383 C13.23571564 20.14827146 13.25693693 22.19972747 13.27099609 24.2512207 C13.29244424 27.20320054 13.33910448 30.1538793 13.390625 33.10546875 C13.39185364 34.02023483 13.39308228 34.93500092 13.39434814 35.87748718 C13.49005338 40.05403316 13.6481285 42.41894781 15.85058594 46.0559082 C19.26677114 49.14576313 22.42055586 49.28089227 26.9296875 49.22265625 C30.10016804 48.88168004 32.36189191 47.73729069 35 46 C35.91187611 43.26437166 36.14730259 41.53854525 36.20532227 38.7121582 C36.22526749 37.85149246 36.24521271 36.99082672 36.26576233 36.1040802 C36.28247482 35.17899155 36.29918732 34.25390289 36.31640625 33.30078125 C36.33718735 32.35059616 36.35796844 31.40041107 36.37937927 30.4214325 C36.44478052 27.38519544 36.50371604 24.34887169 36.5625 21.3125 C36.60569417 19.25454831 36.64930876 17.19660541 36.69335938 15.13867188 C36.80045231 10.09253684 36.90174646 5.04631457 37 0 C41.62 0 46.24 0 51 0 C51.09944869 5.81660061 51.1717413 11.63269792 51.21972656 17.44995117 C51.23974646 19.4256249 51.26697092 21.40124009 51.30175781 23.37670898 C51.35070207 26.2291515 51.37306525 29.08080549 51.390625 31.93359375 C51.41127014 32.80584091 51.43191528 33.67808807 51.45318604 34.57676697 C51.45596211 42.29690354 48.97301177 47.83122352 44.9375 54.3125 C38.24331316 60.43696881 30.00066831 61.71142682 21.1484375 61.375 C14.21623143 60.54932781 8.92364798 58.68920301 4.5 53.125 C0.05380205 46.74005294 -0.28065024 40.52760755 -0.1953125 33.0078125 C-0.1924826 32.06187225 -0.18965271 31.11593201 -0.18673706 30.1413269 C-0.17558932 27.13575306 -0.15049465 24.13048298 -0.125 21.125 C-0.11496321 19.08073349 -0.10583859 17.03646228 -0.09765625 14.9921875 C-0.07566767 9.99467556 -0.04117509 4.9973892 0 0 Z " transform="translate(173,294)" style="fill: #11135D;"/><path d="M0 0 C9.96554453 5.74058285 16.60458638 12.28286683 20.23046875 23.34765625 C21.91228015 32.52268675 21.38442719 41.42815096 16.625 49.5 C16.17125 50.510625 15.7175 51.52125 15.25 52.5625 C13.625 54.5 13.625 54.5 10.4375 54.8125 C9.509375 54.709375 8.58125 54.60625 7.625 54.5 C6.26238739 49.17342342 6.26238739 49.17342342 7.9375 46.0625 C8.494375 45.216875 9.05125 44.37125 9.625 43.5 C12.33720417 35.93437783 12.50238494 29.22415525 9.72265625 21.73828125 C6.59685858 15.36432371 1.8602009 10.67700035 -4.78515625 8.12109375 C-14.86432557 5.7039174 -23.45246386 7.66695959 -32.375 12.5 C-32.375 13.16 -32.375 13.82 -32.375 14.5 C-33.035 14.5 -33.695 14.5 -34.375 14.5 C-35.06274405 15.82258472 -35.72211373 17.15986503 -36.375 18.5 C-36.91125 19.469375 -37.4475 20.43875 -38 21.4375 C-40.57818079 27.63044973 -40.70712918 35.18537553 -38.21484375 41.38671875 C-37.32263938 43.04935028 -36.37899067 44.68609607 -35.37109375 46.28125 C-34.10451154 49.10249979 -34.46438383 50.59398994 -35.375 53.5 C-36.375 54.5 -36.375 54.5 -38.625 55.0625 C-41.91530124 54.38948384 -42.19958532 53.83653363 -44 51.125 C-48.4695294 43.10240622 -50.59639805 34.68061828 -49.375 25.5 C-46.4944119 16.10485113 -40.34152124 7.02732031 -31.8046875 1.98046875 C-21.55706177 -3.20309704 -10.68522726 -5.07445155 0 0 Z " transform="translate(291.375,165.5)" style="fill: #781871;"/><path d="M0 0 C16.17 0 32.34 0 49 0 C49 3.63 49 7.26 49 11 C43.06 11 37.12 11 31 11 C31 26.84 31 42.68 31 59 C26.71 59 22.42 59 18 59 C18 43.16 18 27.32 18 11 C12.06 11 6.12 11 0 11 C0 7.37 0 3.74 0 0 Z " transform="translate(344,294)" style="fill: #0B0D5A;"/><path d="M0 0 C18.24158933 0 18.24158933 0 22.6484375 4.18359375 C24.97870708 7.31531443 25.7167841 10.20736975 26 14 C26.07992188 15.0415625 26.15984375 16.083125 26.2421875 17.15625 C26.508649 23.99020386 26.34672932 28.59595815 22 34 C17 37 17 37 0 37 C0 24.79 0 12.58 0 0 Z " transform="translate(257,305)" style="fill: #F5F5F6;"/><path d="M0 0 C1.31613281 -0.04898438 2.63226563 -0.09796875 3.98828125 -0.1484375 C7.6875 0.375 7.6875 0.375 10.60546875 2.4609375 C13.12164242 5.98263648 13.39218589 8.07613779 13.6875 12.375 C13.02246094 15.96777344 13.02246094 15.96777344 11.921875 19.734375 C11.72781067 20.40543274 11.53374634 21.07649048 11.33380127 21.7678833 C10.92343788 23.17487277 10.50623892 24.57988508 10.08251953 25.98291016 C9.43652844 28.12822651 8.81646447 30.27985233 8.19921875 32.43359375 C4.74300762 44.1834771 4.74300762 44.1834771 1.6875 46.375 C-0.8125 46.5625 -0.8125 46.5625 -3.3125 45.375 C-5.85476463 39.41359337 -7.62155898 33.21435093 -9.4375 27 C-9.95927737 25.22086645 -10.48263669 23.44219584 -11.0078125 21.6640625 C-11.23484863 20.88756348 -11.46188477 20.11106445 -11.69580078 19.31103516 C-12.27416427 17.3227973 -12.27416427 17.3227973 -13.3125 15.375 C-13.86762815 10.74286507 -13.9489242 7.39327873 -11.4375 3.375 C-7.84164294 -0.00933606 -4.73409805 0.09928518 0 0 Z " transform="translate(277.3125,220.625)" style="fill: #74116C;"/><path d="M0 0 C4.29 0 8.58 0 13 0 C13 19.47 13 38.94 13 59 C8.71 59 4.42 59 0 59 C0 39.53 0 20.06 0 0 Z " transform="translate(315,294)" style="fill: #0D0F5B;"/><path d="M0 0 C3.54890658 1.61607768 6.07648171 3.79541092 8.4375 6.875 C9.74543433 11.81608523 9.53166711 16.53944367 7 21 C3.31017225 24.39852556 0.1277481 26.72246764 -4.875 27.375 C-9.85609315 26.77726882 -13.82603525 23.84216786 -17 20 C-18.36439276 15.90682172 -18.77052642 12.26970603 -18 8 C-13.51328892 0.54515697 -8.45865808 -1.13793607 0 0 Z " transform="translate(282,183)" style="fill: #75136E;"/><path d="M0 0 C9.9609375 -0.1953125 9.9609375 -0.1953125 13 0 C15 2 15 2 15.125 4.5 C15.08375 5.325 15.0425 6.15 15 7 C14.76429774 9 14.76429774 9 16 10 C16.4603413 15.29392491 16.4603413 15.29392491 14.90234375 17.68359375 C10.83715841 20.49666862 4.67427104 19.13883973 0 19 C0 12.73 0 6.46 0 0 Z " transform="translate(276,383)" style="fill: #633B6A;"/><path d="M0 0 C9.9609375 -0.1953125 9.9609375 -0.1953125 13 0 C15 2 15 2 15.1875 4.5 C15 7 15 7 14 9 C14.66 9.33 15.32 9.66 16 10 C16.25 12.8125 16.25 12.8125 16 16 C13.67946555 18.40978578 12.33624266 18.96733394 8.984375 19.29296875 C7.91703125 19.25816406 6.8496875 19.22335937 5.75 19.1875 C2.90375 19.0946875 2.90375 19.0946875 0 19 C0 12.73 0 6.46 0 0 Z " transform="translate(190,383)" style="fill: #623969;"/><path d="M0 0 C1.32 0 2.64 0 4 0 C4.99 2.97 5.98 5.94 7 9 C7.99 6.03 8.98 3.06 10 0 C11.32 0 12.64 0 14 0 C15.42258812 3.82320557 16.24042276 6.91281305 16 11 C16.66 11 17.32 11 18 11 C18.09087891 10.06027344 18.09087891 10.06027344 18.18359375 9.1015625 C18.26738281 8.28429687 18.35117188 7.46703125 18.4375 6.625 C18.51871094 5.81289063 18.59992188 5.00078125 18.68359375 4.1640625 C19 2 19 2 20 0 C21.32 0 22.64 0 24 0 C22.68 6.27 21.36 12.54 20 19 C18.35 19 16.7 19 15 19 C14.01 15.7 13.02 12.4 12 9 C10.87119943 12.31114834 9.78697325 15.58978257 9 19 C7.35 19 5.7 19 4 19 C3.32900016 16.39688008 2.66304662 13.79264602 2 11.1875 C1.80921875 10.44951172 1.6184375 9.71152344 1.421875 8.95117188 C0.64737086 5.89464659 0 3.16626522 0 0 Z " transform="translate(233,383)" style="fill: #5C3163;"/><path d="M0 0 C4.62 0 9.24 0 14 0 C14 1.32 14 2.64 14 4 C11.03 4 8.06 4 5 4 C5 4.99 5 5.98 5 7 C7.97 7 10.94 7 14 7 C14 8.32 14 9.64 14 11 C11.03 11 8.06 11 5 11 C5 12.32 5 13.64 5 15 C8.3 15 11.6 15 15 15 C15 16.32 15 17.64 15 19 C10.05 19 5.1 19 0 19 C0 12.73 0 6.46 0 0 Z " transform="translate(259,383)" style="fill: #68406F;"/><path d="M0 0 C1.65 0 3.3 0 5 0 C6.80078125 1.96875 6.80078125 1.96875 8.3125 4.5 C8.82425781 5.3353125 9.33601563 6.170625 9.86328125 7.03125 C10.23839844 7.6809375 10.61351562 8.330625 11 9 C11.33 6.03 11.66 3.06 12 0 C13.32 0 14.64 0 16 0 C16 5.94 16 11.88 16 18 C11 17 11 17 9.19921875 14.93359375 C7.79947917 12.62239583 6.39973958 10.31119792 5 8 C4.67 11.63 4.34 15.26 4 19 C2.68 19 1.36 19 0 19 C0 12.73 0 6.46 0 0 Z " transform="translate(259,417)" style="fill: #5D3365;"/><path d="M0 0 C4.62 0 9.24 0 14 0 C14 0.99 14 1.98 14 3 C10.7 3 7.4 3 4 3 C4 4.32 4 5.64 4 7 C7.3 7 10.6 7 14 7 C14 8.32 14 9.64 14 11 C11.03 11 8.06 11 5 11 C5 12.32 5 13.64 5 15 C8.3 15 11.6 15 15 15 C15 16.32 15 17.64 15 19 C10.05 19 5.1 19 0 19 C0 12.73 0 6.46 0 0 Z " transform="translate(311,383)" style="fill: #643B6B;"/><path d="M0 0 C1.32 0 2.64 0 4 0 C4 2.31 4 4.62 4 7 C6.64 7 9.28 7 12 7 C12 4.69 12 2.38 12 0 C13.32 0 14.64 0 16 0 C16 6.27 16 12.54 16 19 C14.68 19 13.36 19 12 19 C12 16.36 12 13.72 12 11 C9.69 11 7.38 11 5 11 C5 13.64 5 16.28 5 19 C3.35 19 1.7 19 0 19 C0 12.73 0 6.46 0 0 Z " transform="translate(348,383)" style="fill: #5E3365;"/><path d="M0 0 C2 1 2 1 2.77783203 2.73413086 C3.01872559 3.47026611 3.25961914 4.20640137 3.5078125 4.96484375 C3.77207031 5.76470703 4.03632813 6.56457031 4.30859375 7.38867188 C4.57800781 8.22978516 4.84742188 9.07089844 5.125 9.9375 C5.40214844 10.77474609 5.67929688 11.61199219 5.96484375 12.47460938 C8 18.70539563 8 18.70539563 8 21 C3.38 21 -1.24 21 -6 21 C-4.875 14.25 -4.875 14.25 -3.80859375 11.1328125 C-3.58623047 10.47539062 -3.36386719 9.81796875 -3.13476562 9.140625 C-2.90466797 8.47546875 -2.67457031 7.8103125 -2.4375 7.125 C-2.20353516 6.43664062 -1.96957031 5.74828125 -1.72851562 5.0390625 C-1.15647501 3.35796355 -0.57881544 1.67877837 0 0 Z " transform="translate(129,309)" style="fill: #ECECF1;"/><path d="M0 0 C2.76510922 0.47184433 4.30308632 1.21992742 6.12890625 3.36328125 C6.12890625 4.35328125 6.12890625 5.34328125 6.12890625 6.36328125 C1.25390625 5.48828125 1.25390625 5.48828125 0.12890625 4.36328125 C-1.5372649 4.32264293 -3.2049747 4.32056025 -4.87109375 4.36328125 C-6.37771472 7.3765232 -6.04879748 10.04614502 -5.87109375 13.36328125 C-5.21109375 14.02328125 -4.55109375 14.68328125 -3.87109375 15.36328125 C-1.29569162 15.19820479 -1.29569162 15.19820479 1.12890625 14.36328125 C1.45890625 13.70328125 1.78890625 13.04328125 2.12890625 12.36328125 C3.44890625 12.36328125 4.76890625 12.36328125 6.12890625 12.36328125 C5.77283934 14.94476633 5.29562432 16.18373872 3.50390625 18.11328125 C0.16266204 19.87183083 -2.14970011 19.82845546 -5.87109375 19.36328125 C-8.23606814 17.4961962 -9.5314009 16.04266694 -10.87109375 13.36328125 C-11.23532648 8.9196419 -11.36393847 6.39182675 -9.43359375 2.36328125 C-6.1585328 -0.19286388 -4.06320051 -0.23428668 0 0 Z " transform="translate(338.87109375,382.63671875)" style="fill: #582D60;"/><path d="M0 0 C2.57318897 0.57824471 3.52598381 1.36231572 5.0859375 3.46875 C5.0859375 4.45875 5.0859375 5.44875 5.0859375 6.46875 C1.2109375 5.59375 1.2109375 5.59375 0.0859375 4.46875 C-2.37216248 4.2186727 -2.37216248 4.2186727 -4.9140625 4.46875 C-7.67629528 7.23098278 -7.49262541 9.67581617 -7.9140625 13.46875 C-7.2540625 13.46875 -6.5940625 13.46875 -5.9140625 13.46875 C-5.9140625 14.12875 -5.9140625 14.78875 -5.9140625 15.46875 C-3.6040625 15.46875 -1.2940625 15.46875 1.0859375 15.46875 C1.4159375 14.14875 1.7459375 12.82875 2.0859375 11.46875 C3.4059375 11.46875 4.7259375 11.46875 6.0859375 11.46875 C5.47316138 14.43050123 4.83221228 15.84933783 3.0859375 18.46875 C0.58984375 18.8671875 0.58984375 18.8671875 -2.3515625 18.84375 C-3.80369141 18.85535156 -3.80369141 18.85535156 -5.28515625 18.8671875 C-7.9140625 18.46875 -7.9140625 18.46875 -9.69921875 17.1328125 C-12.36523786 13.48096638 -12.36497726 9.82759271 -11.9140625 5.46875 C-8.61250418 0.46316159 -5.62631549 -0.07680977 0 0 Z " transform="translate(289.9140625,416.53125)" style="fill: #5B3063;"/><path d="M0 0 C4.95 0 9.9 0 15 0 C15 1.32 15 2.64 15 4 C13.35 4 11.7 4 10 4 C10 8.95 10 13.9 10 19 C8.35 19 6.7 19 5 19 C5 14.05 5 9.1 5 4 C3.35 4 1.7 4 0 4 C0 2.68 0 1.36 0 0 Z " transform="translate(294,383)" style="fill: #68416F;"/><path d="M0 0 C2.375 0.1875 2.375 0.1875 5 1 C6.3125 3.5625 6.3125 3.5625 7 6 C9.0245738 4.06745228 10.42105792 2.36841312 12 0 C14.625 -0.1875 14.625 -0.1875 17 0 C16.57847656 0.70125 16.15695313 1.4025 15.72265625 2.125 C12.39398593 7.88947378 10.25203391 12.32110138 10 19 C8.68 19 7.36 19 6 19 C5.98582031 18.443125 5.97164062 17.88625 5.95703125 17.3125 C5.60724155 11.71586475 4.31367331 8.19339458 1.05859375 3.62890625 C0 2 0 2 0 0 Z " transform="translate(208,383)" style="fill: #5A2F61;"/><path d="M0 0 C1.32 0 2.64 0 4 0 C4 6.27 4 12.54 4 19 C2.68 19 1.36 19 0 19 C0 12.73 0 6.46 0 0 Z " transform="translate(252,417)" style="fill: #613868;"/><path d="M0 0 C1.32 0 2.64 0 4 0 C3.34 2.97 2.68 5.94 2 9 C1.01 8.67 0.02 8.34 -1 8 C-1.125 2.25 -1.125 2.25 0 0 Z " transform="translate(253,383)" style="fill: #592D60;"/><path d="M0 0 C2.31 0 4.62 0 7 0 C7 1.32 7 2.64 7 4 C4.69 4 2.38 4 0 4 C0 2.68 0 1.36 0 0 Z " transform="translate(281,394)" style="fill: #F4F3F4;"/><path d="M0 0 C2.31 0 4.62 0 7 0 C7 1.32 7 2.64 7 4 C4.69 4 2.38 4 0 4 C0 2.68 0 1.36 0 0 Z " transform="translate(195,394)" style="fill: #F4F2F4;"/><path d="M0 0 C1.65 0 3.3 0 5 0 C5 1.65 5 3.3 5 5 C3.35 5 1.7 5 0 5 C0 3.35 0 1.7 0 0 Z " transform="translate(298,431)" style="fill: #8F7394;"/><path d="M0 0 C1.98 0 3.96 0 6 0 C6 1.32 6 2.64 6 4 C4.02 4 2.04 4 0 4 C0 2.68 0 1.36 0 0 Z " transform="translate(281,386)" style="fill: #EAE6EB;"/><path d="M0 0 C1.98 0 3.96 0 6 0 C6 1.32 6 2.64 6 4 C4.02 4 2.04 4 0 4 C0 2.68 0 1.36 0 0 Z " transform="translate(195,386)" style="fill: #EAE5EA;"/><path d="M0 0 C4.62 0 9.24 0 14 0 C13.67 0.66 13.34 1.32 13 2 C11.86111328 1.98259766 11.86111328 1.98259766 10.69921875 1.96484375 C9.70535156 1.95582031 8.71148437 1.94679688 7.6875 1.9375 C6.70136719 1.92589844 5.71523437 1.91429687 4.69921875 1.90234375 C1.90036151 1.87670138 1.90036151 1.87670138 -1 3 C-0.67 2.01 -0.34 1.02 0 0 Z " transform="translate(123,294)" style="fill: #25276B;"/></svg>